<svg xmlns="http://www.w3.org/2000/svg" xmlns:xlink="http://www.w3.org/1999/xlink">

    <symbol id="icon-mail" width="16px" height="14px" viewBox="0 0 16 14" version="1.1">
        <defs></defs>
        <g stroke="none" stroke-width="1" fill="none" fill-rule="evenodd">
            <g transform="translate(-1241.000000, -534.000000)" fill="currentColor" fill-rule="nonzero">
                <g transform="translate(25.000000, 139.000000)">
                    <g transform="translate(11.000000, 384.000000)">
                        <g>
                            <g transform="translate(1117.000000, 2.000000)">
                                <g transform="translate(80.000000, 0.000000)">
                                    <g transform="translate(8.000000, 8.000000)">
                                        <g transform="translate(0.000000, 1.000000)">
                                            <path d="M13.8829062,0.00203125 L2.11709375,0.00203125 C0.94975,0.00203125 6.25e-05,0.95175 6.25e-05,2.1190625 L6.25e-05,10.9434063 C6.25e-05,12.11075 0.94975,13.0604375 2.11709375,13.0604375 L13.8829062,13.0604375 C15.05025,13.0604375 15.9999375,12.1107188 15.9999375,10.9434063 L15.9999375,2.1190625 C15.9999375,0.95171875 15.05025,0.00203125 13.8829062,0.00203125 Z M14.7073125,10.9434062 C14.7073125,11.3979687 14.3374687,11.7678125 13.8829062,11.7678125 L2.11709375,11.7678125 C1.66253125,11.7678125 1.2926875,11.3979687 1.2926875,10.9434063 L1.2926875,2.1190625 C1.2926875,1.6645 1.66253125,1.29465625 2.11709375,1.29465625 L13.8829062,1.29465625 C14.3374687,1.29465625 14.7073125,1.6645 14.7073125,2.1190625 L14.7073125,10.9434062 Z"></path>
                                            <path d="M15.8830938,1.7484375 C15.6784375,1.45603125 15.2755,1.38490625 14.9829688,1.58959375 L7.99996875,6.477625 L1.017,1.5895625 C0.72459375,1.38484375 0.32159375,1.456 0.11690625,1.74840625 C-0.08778125,2.0408125 -0.01665625,2.4438125 0.27575,2.6485 L7.629375,7.7960625 C7.74065625,7.87396875 7.8703125,7.912875 8,7.912875 C8.12965625,7.912875 8.25934375,7.8739375 8.370625,7.7960625 L15.72425,2.64853125 C16.0166563,2.44384375 16.0877813,2.04084375 15.8830938,1.7484375 Z"></path>
                                        </g>
                                    </g>
                                </g>
                            </g>
                        </g>
                    </g>
                </g>
            </g>
        </g>
    </symbol>
	
	<symbol id="icon-table-copy" width="14px" height="16px" viewBox="0 0 14 16" version="1.1">    
    <defs></defs>
    <g stroke="none" stroke-width="1" fill="none" fill-rule="evenodd">
        <g transform="translate(-1162.000000, -533.000000)" fill="currentColor" fill-rule="nonzero">
            <g transform="translate(25.000000, 139.000000)">
                <g transform="translate(11.000000, 384.000000)">
                    <g>
                        <g transform="translate(1117.000000, 2.000000)">
                            <g>
                                <g transform="translate(9.000000, 8.000000)">
                                    <path d="M10.3157895,0 L1.47368421,0 C0.663157895,0 0,0.654545455 0,1.45454545 L0,11.6363636 L1.47368421,11.6363636 L1.47368421,1.45454545 L10.3157895,1.45454545 L10.3157895,0 Z M12.5263158,2.90909091 L4.42105263,2.90909091 C3.61052632,2.90909091 2.94736842,3.56363636 2.94736842,4.36363636 L2.94736842,14.5454545 C2.94736842,15.3454545 3.61052632,16 4.42105263,16 L12.5263158,16 C13.3368421,16 14,15.3454545 14,14.5454545 L14,4.36363636 C14,3.56363636 13.3368421,2.90909091 12.5263158,2.90909091 Z M12.5263158,14.5454545 L4.42105263,14.5454545 L4.42105263,4.36363636 L12.5263158,4.36363636 L12.5263158,14.5454545 Z"></path>
                                </g>
                            </g>
                        </g>
                    </g>
                </g>
            </g>
        </g>
    </g>
	</symbol>
	

    <svg id="icon-more-table" width="18px" height="4px" viewBox="0 0 18 4" version="1.1">
    <defs></defs>
    <g stroke="none" stroke-width="1" fill="none" fill-rule="evenodd" opacity="0.5">
        <g transform="translate(-1280.000000, -539.000000)" fill="#4A5069" fill-rule="nonzero">
            <g transform="translate(25.000000, 139.000000)">
                <g transform="translate(11.000000, 384.000000)">
                    <g>
                        <g transform="translate(1117.000000, 2.000000)">
                            <g transform="translate(120.000000, 0.000000)">
                                <path d="M13.9722449,16 C13.9722449,14.8949275 14.8795918,14 16,14 C17.1204082,14 18.0277551,14.8949275 18.0277551,16 C18.0277551,17.1050725 17.1204082,18 16,18 C14.8795918,18 13.9722449,17.1050725 13.9722449,16 Z M22.9722449,14 C21.8518367,14 20.9444898,14.8949275 20.9444898,16 C20.9444898,17.1050725 21.8518367,18 22.9722449,18 C24.0926531,18 25,17.1050725 25,16 C25,14.8949275 24.0926531,14 22.9722449,14 Z M9.0277551,14 C7.90734694,14 7,14.8949275 7,16 C7,17.1050725 7.90734694,18 9.0277551,18 C10.1481633,18 11.0555102,17.1050725 11.0555102,16 C11.0555102,14.8949275 10.1481633,14 9.0277551,14 Z"></path>
                            </g>
                        </g>
                    </g>
                </g>
            </g>
        </g>
    </g>
</svg>
	
</svg>