<svg xmlns="http://www.w3.org/2000/svg" xmlns:xlink="http://www.w3.org/1999/xlink">

    <symbol id="icon-mail" width="16px" height="14px" viewBox="0 0 16 14" version="1.1">
        <defs></defs>
        <g stroke="none" stroke-width="1" fill="none" fill-rule="evenodd">
            <g transform="translate(-1241.000000, -534.000000)" fill="currentColor" fill-rule="nonzero">
                <g transform="translate(25.000000, 139.000000)">
                    <g transform="translate(11.000000, 384.000000)">
                        <g>
                            <g transform="translate(1117.000000, 2.000000)">
                                <g transform="translate(80.000000, 0.000000)">
                                    <g transform="translate(8.000000, 8.000000)">
                                        <g transform="translate(0.000000, 1.000000)">
                                            <path d="M13.8829062,0.00203125 L2.11709375,0.00203125 C0.94975,0.00203125 6.25e-05,0.95175 6.25e-05,2.1190625 L6.25e-05,10.9434063 C6.25e-05,12.11075 0.94975,13.0604375 2.11709375,13.0604375 L13.8829062,13.0604375 C15.05025,13.0604375 15.9999375,12.1107188 15.9999375,10.9434063 L15.9999375,2.1190625 C15.9999375,0.95171875 15.05025,0.00203125 13.8829062,0.00203125 Z M14.7073125,10.9434062 C14.7073125,11.3979687 14.3374687,11.7678125 13.8829062,11.7678125 L2.11709375,11.7678125 C1.66253125,11.7678125 1.2926875,11.3979687 1.2926875,10.9434063 L1.2926875,2.1190625 C1.2926875,1.6645 1.66253125,1.29465625 2.11709375,1.29465625 L13.8829062,1.29465625 C14.3374687,1.29465625 14.7073125,1.6645 14.7073125,2.1190625 L14.7073125,10.9434062 Z"></path>
                                            <path d="M15.8830938,1.7484375 C15.6784375,1.45603125 15.2755,1.38490625 14.9829688,1.58959375 L7.99996875,6.477625 L1.017,1.5895625 C0.72459375,1.38484375 0.32159375,1.456 0.11690625,1.74840625 C-0.08778125,2.0408125 -0.01665625,2.4438125 0.27575,2.6485 L7.629375,7.7960625 C7.74065625,7.87396875 7.8703125,7.912875 8,7.912875 C8.12965625,7.912875 8.25934375,7.8739375 8.370625,7.7960625 L15.72425,2.64853125 C16.0166563,2.44384375 16.0877813,2.04084375 15.8830938,1.7484375 Z"></path>
                                        </g>
                                    </g>
                                </g>
                            </g>
                        </g>
                    </g>
                </g>
            </g>
        </g>
    </symbol>

	<symbol id="icon-table-copy" width="14px" height="16px" viewBox="0 0 14 16" version="1.1">
    <defs></defs>
    <g stroke="none" stroke-width="1" fill="none" fill-rule="evenodd">
        <g transform="translate(-1162.000000, -533.000000)" fill="currentColor" fill-rule="nonzero">
            <g transform="translate(25.000000, 139.000000)">
                <g transform="translate(11.000000, 384.000000)">
                    <g>
                        <g transform="translate(1117.000000, 2.000000)">
                            <g>
                                <g transform="translate(9.000000, 8.000000)">
                                    <path d="M10.3157895,0 L1.47368421,0 C0.663157895,0 0,0.654545455 0,1.45454545 L0,11.6363636 L1.47368421,11.6363636 L1.47368421,1.45454545 L10.3157895,1.45454545 L10.3157895,0 Z M12.5263158,2.90909091 L4.42105263,2.90909091 C3.61052632,2.90909091 2.94736842,3.56363636 2.94736842,4.36363636 L2.94736842,14.5454545 C2.94736842,15.3454545 3.61052632,16 4.42105263,16 L12.5263158,16 C13.3368421,16 14,15.3454545 14,14.5454545 L14,4.36363636 C14,3.56363636 13.3368421,2.90909091 12.5263158,2.90909091 Z M12.5263158,14.5454545 L4.42105263,14.5454545 L4.42105263,4.36363636 L12.5263158,4.36363636 L12.5263158,14.5454545 Z"></path>
                                </g>
                            </g>
                        </g>
                    </g>
                </g>
            </g>
        </g>
    </g>
	</symbol>


    <svg id="icon-more-table" width="18px" height="4px" viewBox="0 0 18 4" version="1.1">
    <defs></defs>
    <g stroke="none" stroke-width="1" fill="none" fill-rule="evenodd" opacity="0.5">
        <g transform="translate(-1280.000000, -539.000000)" fill="#4A5069" fill-rule="nonzero">
            <g transform="translate(25.000000, 139.000000)">
                <g transform="translate(11.000000, 384.000000)">
                    <g>
                        <g transform="translate(1117.000000, 2.000000)">
                            <g transform="translate(120.000000, 0.000000)">
                                <path d="M13.9722449,16 C13.9722449,14.8949275 14.8795918,14 16,14 C17.1204082,14 18.0277551,14.8949275 18.0277551,16 C18.0277551,17.1050725 17.1204082,18 16,18 C14.8795918,18 13.9722449,17.1050725 13.9722449,16 Z M22.9722449,14 C21.8518367,14 20.9444898,14.8949275 20.9444898,16 C20.9444898,17.1050725 21.8518367,18 22.9722449,18 C24.0926531,18 25,17.1050725 25,16 C25,14.8949275 24.0926531,14 22.9722449,14 Z M9.0277551,14 C7.90734694,14 7,14.8949275 7,16 C7,17.1050725 7.90734694,18 9.0277551,18 C10.1481633,18 11.0555102,17.1050725 11.0555102,16 C11.0555102,14.8949275 10.1481633,14 9.0277551,14 Z"></path>
                            </g>
                        </g>
                    </g>
                </g>
            </g>
        </g>
    </g>
</svg>
<svg id="icon-excel" width="16px" height="16px" viewBox="0 0 16 16" version="1.1">
    <defs></defs>
    <g stroke="none" stroke-width="1" fill="none" fill-rule="evenodd">
        <g transform="translate(-1168.000000, -349.000000)" fill="#65B53E" fill-rule="nonzero">
            <g transform="translate(25.000000, 139.000000)">
                <g transform="translate(20.000000, 197.000000)">
                    <g transform="translate(1113.000000, 0.000000)">
                        <g transform="translate(10.000000, 13.000000)">
                            <path d="M15.5,2.03159375 L9,2.03159375 L9,0.53159375 C9,0.38259375 8.934,0.24159375 8.819,0.14659375 C8.705,0.05159375 8.552,0.01059375 8.408,0.04059375 L0.408,1.54059375 C0.171,1.58459375 0,1.79059375 0,2.03159375 L0,13.0315938 C0,13.2715938 0.171,13.4785938 0.408,13.5225938 L8.408,15.0225938 C8.438,15.0285938 8.469,15.0315938 8.5,15.0315938 C8.616,15.0315938 8.729,14.9915938 8.819,14.9165938 C8.934,14.8215938 9,14.6795938 9,14.5315938 L9,13.0315938 L15.5,13.0315938 C15.776,13.0315938 16,12.8075937 16,12.5315938 L16,2.53159375 C16,2.25559375 15.776,2.03159375 15.5,2.03159375 Z M6.876,9.20259375 C7.058,9.40959375 7.037,9.72559375 6.829,9.90759375 C6.734,9.99059375 6.617,10.0315938 6.5,10.0315938 C6.361,10.0315938 6.223,9.97359375 6.124,9.86059375 L4.67,8.19959375 L3.395,9.83959375 C3.296,9.96559375 3.148,10.0315938 3,10.0315938 C2.893,10.0315938 2.785,9.99759375 2.693,9.92659375 C2.475,9.75659375 2.436,9.44259375 2.605,9.22459375 L3.999,7.43259375 L2.624,5.86059375 C2.442,5.65359375 2.463,5.33759375 2.671,5.15559375 C2.878,4.97359375 3.193,4.99359375 3.377,5.20259375 L4.625,6.62859375 L6.106,4.72459375 C6.276,4.50759375 6.59,4.46759375 6.808,4.63759375 C7.026,4.80659375 7.065,5.12059375 6.895,5.33959375 L5.295,7.39559375 L6.876,9.20259375 Z M15,12.0315938 L9,12.0315938 L9,11.0315938 L10.5,11.0315938 C10.776,11.0315938 11,10.8075938 11,10.5315938 C11,10.2555938 10.776,10.0315938 10.5,10.0315938 L9,10.0315938 L9,9.03159375 L10.5,9.03159375 C10.776,9.03159375 11,8.80759375 11,8.53159375 C11,8.25559375 10.776,8.03159375 10.5,8.03159375 L9,8.03159375 L9,7.03159375 L10.5,7.03159375 C10.776,7.03159375 11,6.80759375 11,6.53159375 C11,6.25559375 10.776,6.03159375 10.5,6.03159375 L9,6.03159375 L9,5.03159375 L10.5,5.03159375 C10.776,5.03159375 11,4.80759375 11,4.53159375 C11,4.25559375 10.776,4.03159375 10.5,4.03159375 L9,4.03159375 L9,3.03159375 L15,3.03159375 L15,12.0315938 Z"></path>
                            <path d="M13.5,4.03159375 L12.5,4.03159375 C12.224,4.03159375 12,4.25559375 12,4.53159375 C12,4.80759375 12.224,5.03159375 12.5,5.03159375 L13.5,5.03159375 C13.776,5.03159375 14,4.80759375 14,4.53159375 C14,4.25559375 13.776,4.03159375 13.5,4.03159375 Z"></path>
                            <path d="M13.5,6.03159375 L12.5,6.03159375 C12.224,6.03159375 12,6.25559375 12,6.53159375 C12,6.80759375 12.224,7.03159375 12.5,7.03159375 L13.5,7.03159375 C13.776,7.03159375 14,6.80759375 14,6.53159375 C14,6.25559375 13.776,6.03159375 13.5,6.03159375 Z"></path>
                            <path d="M13.5,8.03159375 L12.5,8.03159375 C12.224,8.03159375 12,8.25559375 12,8.53159375 C12,8.80759375 12.224,9.03159375 12.5,9.03159375 L13.5,9.03159375 C13.776,9.03159375 14,8.80759375 14,8.53159375 C14,8.25559375 13.776,8.03159375 13.5,8.03159375 Z"></path>
                            <path d="M13.5,10.0315938 L12.5,10.0315938 C12.224,10.0315938 12,10.2555938 12,10.5315938 C12,10.8075938 12.224,11.0315938 12.5,11.0315938 L13.5,11.0315938 C13.776,11.0315938 14,10.8075938 14,10.5315938 C14,10.2555937 13.776,10.0315938 13.5,10.0315938 Z"></path>
                        </g>
                    </g>
                </g>
            </g>
        </g>
    </g>
</svg>

</svg>
